<?xml version="1.0" encoding="UTF-8"?>
<svg id="Warstwa_1" data-name="Warstwa 1" xmlns="http://www.w3.org/2000/svg" viewBox="0 0 128 128">
  <defs>
    <style>
      .cls-1 {
        fill: #fff;
      }

      .cls-1, .cls-2 {
        stroke-width: 0px;
      }

      .cls-2 {
        fill: #1d1d1b;
      }
    </style>
  </defs>
  <circle class="cls-1" cx="64" cy="64" r="64"/>
  <g>
    <path class="cls-2" d="m91.11,87.01l-10.59-16.63h-7.5v16.63h-8.48v-46.02h18.93c9.6,0,16.11,6.11,16.11,14.73,0,6.71-3.95,11.7-10.32,13.54l11.57,17.75h-9.73Zm-18.08-38.46v14.27h10.06c5.19,0,7.96-2.76,7.96-7.1s-2.76-7.17-7.96-7.17h-10.06Z"/>
    <path class="cls-2" d="m27.16,72.03h8.23c.39,4.89,4.24,7.78,10.03,7.78s8.55-2.76,8.55-6.36c0-3.02-2.06-4.95-8.1-6.11l-6.17-1.16c-7.91-1.41-12.02-5.46-12.02-11.63,0-7.84,6.62-13.56,16.78-13.56s16.78,5.53,17.16,13.95h-8.16c-.58-4.31-3.79-6.81-9.19-6.81s-8.36,2.44-8.36,5.91c0,2.76,1.86,4.5,7.78,5.53l6.17,1.16c8.29,1.54,12.41,5.78,12.41,12.21,0,8.16-6.62,14.08-17.29,14.08s-17.61-5.98-17.8-14.98Z"/>
  </g>
  <path class="cls-2" d="m128,64h-9.47c0-30.07-24.46-54.53-54.53-54.53V0c35.29,0,64,28.71,64,64Z"/>
  <path class="cls-2" d="m3.07,61C4.59,29.75,29.75,4.59,61,3.07v3.47C31.66,8.06,8.06,31.66,6.54,61h-3.47Z"/>
  <path class="cls-2" d="m124.96,67.04c-1.52,31.25-26.67,56.41-57.93,57.93v-3.47c29.34-1.52,52.94-25.12,54.46-54.46h3.47Z"/>
  <path class="cls-2" d="m0,64h9.47c0,30.07,24.46,54.53,54.53,54.53v9.47C28.71,128,0,99.29,0,64Z"/>
</svg>