<?xml version="1.0" encoding="UTF-8"?>
<svg id="Warstwa_1" data-name="Warstwa 1" xmlns="http://www.w3.org/2000/svg" viewBox="0 0 770.2 144.28">
  <defs>
    <style>
      .cls-1 {
        fill: #fff;
        stroke-width: 0px;
      }
    </style>
  </defs>
  <g>
    <path class="cls-1" d="m36.91,81.81h7.32c1.44,12.36,11.4,19.56,25.08,19.56s22.32-7.56,22.32-17.4c0-7.8-5.28-13.08-20.04-15.84l-11.04-2.04c-14.88-2.76-22.08-9.72-22.08-20.52,0-13.44,11.76-23.52,29.04-23.52s28.68,9.6,30.24,24h-7.44c-1.56-11.16-10.2-17.4-23.04-17.4s-21.48,6.72-21.48,16.56c0,7.56,5.04,12.36,18.96,15l11.04,2.04c15.84,2.88,23.16,10.2,23.16,21.36,0,14.04-11.88,24.36-30,24.36s-30.96-10.44-32.04-26.16Z"/>
    <path class="cls-1" d="m155.59,45.45h6.96v61.56h-6.96v-11.04c-4.44,7.56-12.6,12-22.32,12-13.68,0-22.92-9-22.92-24.24v-38.28h6.96v36.84c0,12.84,7.08,19.32,17.52,19.32,11.4,0,20.76-7.8,20.76-21.12v-35.04Z"/>
    <path class="cls-1" d="m270.78,68.73v38.28h-6.96v-36.84c0-12.72-6.96-19.2-15.96-19.2-9.96,0-19.32,7.68-19.32,20.76v35.28h-6.96v-36.84c0-12.72-7.08-19.2-16.08-19.2-9.96,0-19.32,7.68-19.32,20.76v35.28h-6.96v-61.56h6.96v10.8c4.44-7.44,12.36-11.76,21-11.76,9.24,0,16.8,4.92,19.8,14.16,4.08-9,12.96-14.16,22.44-14.16,12.36,0,21.36,8.64,21.36,24.24Z"/>
    <path class="cls-1" d="m378.3,68.73v38.28h-6.96v-36.84c0-12.72-6.96-19.2-15.96-19.2-9.96,0-19.32,7.68-19.32,20.76v35.28h-6.96v-36.84c0-12.72-7.08-19.2-16.08-19.2-9.96,0-19.32,7.68-19.32,20.76v35.28h-6.96v-61.56h6.96v10.8c4.44-7.44,12.36-11.76,21-11.76,9.24,0,16.8,4.92,19.8,14.16,4.08-9,12.96-14.16,22.44-14.16,12.36,0,21.36,8.64,21.36,24.24Z"/>
    <path class="cls-1" d="m451.26,101.01v6h-4.92c-6.6,0-10.68-3.84-10.68-10.8v-.96c-4.08,7.8-12.84,12.6-23.52,12.6-13.32,0-22.32-7.32-22.32-18.12s9.12-17.76,23.4-17.76h22.44v-4.2c0-11.28-6.48-16.92-17.76-16.92-10.56,0-17.4,5.04-18.72,13.44h-7.32c1.44-12.12,11.52-19.8,26.28-19.8s24.36,8.4,24.36,23.28v27.12c0,4.08,2.04,6.12,6,6.12h2.76Zm-15.6-19.92v-3.48h-21.96c-10.68,0-16.8,4.56-16.8,11.88s6.24,12.36,16.08,12.36c12.96,0,22.68-8.16,22.68-20.76Z"/>
    <path class="cls-1" d="m506.94,107.01l-19.32-30.36h-13.68v30.36h-15.48V23.01h34.56c17.52,0,29.4,11.16,29.4,26.88,0,12.24-7.2,21.36-18.84,24.72l21.12,32.4h-17.76Zm-33-70.2v26.04h18.36c9.48,0,14.52-5.04,14.52-12.96s-5.04-13.08-14.52-13.08h-18.36Z"/>
    <path class="cls-1" d="m531.9,25.05c0-5.4,4.44-9.48,9.72-9.48s9.72,4.08,9.72,9.48-4.44,9.36-9.72,9.36-9.72-3.96-9.72-9.36Zm2.4,81.96v-63.6h14.64v63.6h-14.64Z"/>
    <path class="cls-1" d="m577.74,94.29h33.36v12.72h-52.32v-10.44l32.4-40.44h-31.92v-12.72h51v10.44l-32.52,40.44Z"/>
    <path class="cls-1" d="m636.66,94.29h33.36v12.72h-52.32v-10.44l32.4-40.44h-31.92v-12.72h51v10.44l-32.52,40.44Z"/>
    <path class="cls-1" d="m736.37,77.61h-52.2c.48,15.48,10.92,24.24,23.88,24.24,9,0,16.92-4.2,20.76-11.76h6.84c-3.72,11.04-14.64,17.88-27.72,17.88-17.88,0-30.84-12.48-30.84-31.32s13.68-32.16,31.08-32.16c16.32,0,28.44,11.52,28.44,29.76,0,1.32-.12,2.4-.24,3.36Zm-51.84-5.88h45c-1.08-13.8-9.6-21.12-21.36-21.12s-21.84,7.68-23.64,21.12Z"/>
  </g>
  <path class="cls-1" d="m770.2,67.62h-10c0-31.77-25.85-57.62-57.62-57.62V0c37.28,0,67.62,30.33,67.62,67.62Z"/>
  <path class="cls-1" d="m67.62,144.28C30.33,144.28,0,113.95,0,76.66h10c0,31.77,25.85,57.62,57.62,57.62v10Z"/>
</svg>